<svg width="25" height="24" viewBox="0 0 25 24" fill="none" xmlns="http://www.w3.org/2000/svg">
<path d="M15.8636 14L14.8776 14.164C14.8538 14.0208 14.8615 13.8741 14.9001 13.7342C14.9387 13.5943 15.0072 13.4644 15.1011 13.3536C15.1949 13.2429 15.3117 13.1539 15.4434 13.0928C15.5751 13.0317 15.7185 13.0001 15.8636 13V14ZM4.86365 14V15C4.59843 15 4.34408 14.8946 4.15654 14.7071C3.969 14.5196 3.86365 14.2652 3.86365 14H4.86365ZM6.86365 3H18.2236V5H6.86365V3ZM19.4236 15H15.8636V13H19.4236V15ZM16.8506 13.836L17.6556 18.671L15.6836 19L14.8776 14.164L16.8506 13.836ZM15.6836 21H15.4696V19H15.6836V21ZM12.1406 19.219L9.62565 15.445L11.2896 14.335L13.8056 18.109L12.1406 19.219ZM8.79365 15H4.86365V13H8.79365V15ZM3.86365 14V6H5.86365V14H3.86365ZM21.1656 5.412L22.3656 11.412L20.4056 11.804L19.2056 5.804L21.1656 5.412ZM9.62565 15.445C9.5343 15.3081 9.41057 15.1958 9.26543 15.1182C9.12029 15.0406 8.95824 15 8.79365 15V13C9.28751 13 9.77374 13.122 10.2092 13.3551C10.6446 13.5881 11.0157 13.9251 11.2896 14.336L9.62565 15.445ZM17.6556 18.671C17.7034 18.9575 17.6882 19.2509 17.6111 19.5309C17.5341 19.8109 17.3969 20.0707 17.2092 20.2924C17.0216 20.514 16.7879 20.6921 16.5244 20.8143C16.261 20.9365 15.9741 20.9999 15.6836 21V19L17.6556 18.671ZM19.4236 13C19.5716 13.0001 19.7178 12.9673 19.8515 12.904C19.9853 12.8408 20.1034 12.7486 20.1972 12.6342C20.2911 12.5198 20.3584 12.386 20.3942 12.2424C20.4301 12.0988 20.4347 11.9491 20.4056 11.804L22.3656 11.412C22.4526 11.8472 22.442 12.2962 22.3345 12.7267C22.227 13.1573 22.0253 13.5586 21.744 13.9018C21.4627 14.245 21.1087 14.5215 20.7077 14.7114C20.3066 14.9013 19.8684 14.9999 19.4246 15L19.4236 13ZM18.2236 3C18.9173 2.99996 19.5895 3.24026 20.1259 3.68003C20.6623 4.11979 21.0297 4.73183 21.1656 5.412L19.2056 5.804C19.1603 5.57705 19.0376 5.37287 18.8585 5.22625C18.6795 5.07964 18.4551 4.99968 18.2236 5V3ZM15.4696 21C14.8112 21 14.1629 20.8374 13.5824 20.5267C13.0018 20.2161 12.5059 19.7668 12.1406 19.219L13.8056 18.109C13.9882 18.383 14.2356 18.6077 14.5259 18.7631C14.8162 18.9186 15.1404 18.9999 15.4696 19V21ZM6.86365 5C6.59843 5 6.34408 5.10536 6.15654 5.29289C5.969 5.48043 5.86365 5.73478 5.86365 6H3.86365C3.86365 5.20435 4.17972 4.44129 4.74233 3.87868C5.30494 3.31607 6.068 3 6.86365 3V5Z" fill="white"/>
<path d="M8.86365 14V4" stroke="white" stroke-width="2"/>
</svg>
